<svg xmlns="http://www.w3.org/2000/svg" viewBox="0 0 64.08 110.98"><defs><style>.cls-1{fill:#fff;}</style></defs><title>Asset 1</title><g id="Layer_2" data-name="Layer 2"><g id="Layer_1-2" data-name="Layer 1"><path class="cls-1" d="M62.63,52.14c-1.67-6.83-14.73-33.06-15.4-34s-1.6-1.87-2.94-1.62-1.29,2.54-.75,3.31A174.1,174.1,0,0,1,58.38,49.64a42.13,42.13,0,0,1,.83,28.75c-4.32,13.84-13,19.13-14,19.5A1.08,1.08,0,0,1,44,97.47s.43-.31,1.4-3.83a49.17,49.17,0,0,0,1.37-13c-.19-4.87-4.94-7-6-6.87-1.86.2-2.9,1.33-4.5,6-5.94,17.31,2.48,20.67,2.48,20.67s-13,14.58-26.54,3.21c-9.68-8.15-9-20-8.29-30.71s5-21.67,5.5-23.58,7.44-15.4,13.1-25.15S38.79,3.47,40.29,2.81s1-3.22-1.42-2.75c-2.58.5-12.65,10.42-19.08,22C17.25,26.63,9.29,40.64,8,43.72A101.69,101.69,0,0,0,.29,75C-1,91.14,2.56,96.2,3,97.14c.92,1.78,6.7,11.32,13.44,13a25.62,25.62,0,0,0,17.36-1.49,20.19,20.19,0,0,0,8-7.25,12.48,12.48,0,0,0,8.33-2.58c4-3.08,8.75-10.75,11.83-19S64.29,59,62.63,52.14ZM43.06,89.86a18.14,18.14,0,0,1-2.65,7.44,5,5,0,0,1-2.75-3.42,19.77,19.77,0,0,1,0-7c.33-1.46,1.63-7.44,2.5-8.56.38-.49.8-1,.8-1s.12-.16.54-.16,1.44,1.77,1.71,2.5C44,81.89,43.22,88.16,43.06,89.86Z"/></g></g></svg>