<svg xmlns="http://www.w3.org/2000/svg" viewBox="0 0 168.1 110.98"><defs><style>.cls-1{fill:#fff;}</style></defs><title>Asset 3</title><g id="Layer_2" data-name="Layer 2"><g id="Layer_1-2" data-name="Layer 1"><path class="cls-1" d="M73.84,78a12.84,12.84,0,0,0,.34,2.74,2.32,2.32,0,0,1,.06.48q0,.29-.53.75a1.7,1.7,0,0,1-1.12.46Q71,82.39,71,79.53a56,56,0,0,1,1.22-9.34,22.48,22.48,0,0,0,.42-2.74A3.71,3.71,0,0,1,73,65.73a1.14,1.14,0,0,1,1-.71,2,2,0,0,1,1.29.39,1.13,1.13,0,0,1,.47.88,4.88,4.88,0,0,1-.22,1.27,59.76,59.76,0,0,0-1.49,6.06A28.35,28.35,0,0,0,73.84,78ZM75.94,60q-.34,0-.51-.72a4.85,4.85,0,0,0-.18-.5A4.85,4.85,0,0,1,74.82,57a1.82,1.82,0,0,1,.76-1.31A2.51,2.51,0,0,1,77.28,55a2,2,0,0,1,1,.36q.58.36.58.7a7.16,7.16,0,0,1-.39,1.8,2.69,2.69,0,0,1-1.25,1.71A3.24,3.24,0,0,1,75.94,60Z"/><path class="cls-1" d="M84.66,82.43A4.82,4.82,0,0,1,81,81.06a5.44,5.44,0,0,1-1.29-3.87q0-4.19,3.32-8.83t6.18-4.64a2.68,2.68,0,0,1,2.24,1.4,5.26,5.26,0,0,1,.94,3,3.11,3.11,0,0,1-.41,1.63q-.41.68-.83.68-.93,0-1.32-1.88t-1.25-2q-1.67,0-3.95,4a14.18,14.18,0,0,0-2.28,6.69q0,2.73,3.1,2.73A10.26,10.26,0,0,0,91,77.67a3.54,3.54,0,0,1,1.65-.79q.54,0,.54.63,0,1.22-2.87,3.07A10.37,10.37,0,0,1,84.66,82.43Z"/><path class="cls-1" d="M100,74q.21-.27,2.87-2.58t3.51-3.19q3.71-3.71,5.33-3.71,1.25,0,1.25,1.2a2.12,2.12,0,0,1-1.24,2,37.53,37.53,0,0,0-4.28,2.72q-2.68,1.9-2.68,2.69a9.79,9.79,0,0,0,1.89,2.4A22.29,22.29,0,0,0,110,78.63a4.63,4.63,0,0,0,2.68,1l.53,0c.38,0,.56.14.56.5a2,2,0,0,1-.88,1.44,3.53,3.53,0,0,1-2.33.73,3.34,3.34,0,0,1-1.88-.65,23.68,23.68,0,0,1-3.39-3.5q-1.94-2.36-2.42-2.82a1.33,1.33,0,0,0-.8-.46,3.94,3.94,0,0,0-1.12.83,3.09,3.09,0,0,0-1,1.27,31,31,0,0,0-.09,3.31V81A1.36,1.36,0,0,1,99.22,82a1.87,1.87,0,0,1-1.22.47,1.42,1.42,0,0,1-1.06-.39,1.16,1.16,0,0,1-.39-.81A19.23,19.23,0,0,1,97,78.59q.61-3.1,1.12-8.29Q99.3,58,99.94,56.4t1.83-1.61a.81.81,0,0,1,.7.45,2.14,2.14,0,0,1,.28,1.16,52.25,52.25,0,0,1-1.11,6.82A106.9,106.9,0,0,0,100,74Z"/><path class="cls-1" d="M130.09,76.08q0,1.64-2.9,3.95a9.5,9.5,0,0,1-6,2.31,5.15,5.15,0,0,1-4-1.52,6,6,0,0,1-1.4-4.25,14.34,14.34,0,0,1,3.1-8.73q3.1-4.14,6.77-4.14a2.64,2.64,0,0,1,2.73,2.68A6.52,6.52,0,0,1,126,71.11a31.09,31.09,0,0,1-6.48,4.44,1.28,1.28,0,0,0-.83,1.12,3,3,0,0,0,.77,2.13,3,3,0,0,0,2.28.8q3.45,0,7-3.82.53-.53.8-.53Q130.09,75.26,130.09,76.08Zm-11.15-2.5q6.8-4,6.8-6.5,0-1-.87-1-1.48,0-3.33,2.17A12.51,12.51,0,0,0,118.94,73.58Z"/><path class="cls-1" d="M147.18,76.08q0,1.64-2.9,3.95a9.5,9.5,0,0,1-6,2.31,5.15,5.15,0,0,1-4-1.52,6,6,0,0,1-1.4-4.25,14.34,14.34,0,0,1,3.1-8.73q3.1-4.14,6.77-4.14a2.64,2.64,0,0,1,2.73,2.68,6.52,6.52,0,0,1-2.42,4.73,31.09,31.09,0,0,1-6.48,4.44,1.28,1.28,0,0,0-.83,1.12,3,3,0,0,0,.77,2.13,3,3,0,0,0,2.28.8q3.45,0,7-3.82.53-.53.8-.53Q147.18,75.26,147.18,76.08ZM136,73.58q6.8-4,6.8-6.5,0-1-.87-1-1.48,0-3.33,2.17A12.51,12.51,0,0,0,136,73.58Z"/><path class="cls-1" d="M153.63,79.66a65,65,0,0,0-1.48,8.1l-.45,3a3,3,0,0,1-.59,1.28c-.32.42-.62.63-.88.63a1.91,1.91,0,0,1-1.13-.51q-.63-.51-.63-.81a10.51,10.51,0,0,1,.4-2.44,88.06,88.06,0,0,0,2.94-20.82l0-1.35a3.86,3.86,0,0,1,.61-2.52,1.87,1.87,0,0,1,1.48-.79q.39,0,.74.6a3.4,3.4,0,0,1,.35,1.71,26.92,26.92,0,0,1-.32,3.77q-.42,2.79-.43,3.21a25.21,25.21,0,0,1,5.07-6.51q2.68-2.34,5-2.34A3.58,3.58,0,0,1,167,65.12a4.27,4.27,0,0,1,1.11,3,13.56,13.56,0,0,1-4,9.5q-4,4.27-7.81,4.27a2.21,2.21,0,0,1-1.5-.48A5.42,5.42,0,0,1,153.63,79.66Zm10-12.92q-2.26,0-5.6,4.24t-3.34,6.59a1.5,1.5,0,0,0,.66,1.12,2.53,2.53,0,0,0,1.67.54q2.29,0,5.28-3.39t3-6.67a3,3,0,0,0-.47-1.8A1.42,1.42,0,0,0,163.59,66.74Z"/><path class="cls-1" d="M62.63,52.14c-1.67-6.83-14.73-33.06-15.4-34s-1.6-1.87-2.94-1.62-1.29,2.54-.75,3.31A174.1,174.1,0,0,1,58.38,49.64a42.13,42.13,0,0,1,.83,28.75c-4.32,13.84-13,19.13-14,19.5A1.08,1.08,0,0,1,44,97.47s.43-.31,1.4-3.83a49.17,49.17,0,0,0,1.37-13c-.19-4.87-4.94-7-6-6.87-1.86.2-2.9,1.33-4.5,6-5.94,17.31,2.48,20.67,2.48,20.67s-13,14.58-26.54,3.21c-9.68-8.15-9-20-8.29-30.71s5-21.67,5.5-23.58,7.44-15.4,13.1-25.15S38.79,3.47,40.29,2.81s1-3.22-1.42-2.75c-2.58.5-12.65,10.42-19.08,22C17.25,26.63,9.29,40.64,8,43.72A101.69,101.69,0,0,0,.29,75C-1,91.14,2.56,96.2,3,97.14c.92,1.78,6.7,11.32,13.44,13a25.62,25.62,0,0,0,17.36-1.49,20.19,20.19,0,0,0,8-7.25,12.48,12.48,0,0,0,8.33-2.58c4-3.08,8.75-10.75,11.83-19S64.29,59,62.63,52.14ZM43.06,89.86a18.14,18.14,0,0,1-2.65,7.44,5,5,0,0,1-2.75-3.42,19.77,19.77,0,0,1,0-7c.33-1.46,1.63-7.44,2.5-8.56.38-.49.8-1,.8-1s.12-.16.54-.16,1.44,1.77,1.71,2.5C44,81.89,43.22,88.16,43.06,89.86Z"/></g></g></svg>